<svg width="138" height="138" viewBox="0 0 138 138" fill="none" xmlns="http://www.w3.org/2000/svg">
<g filter="url(#filter0_d_38_9)">
<path d="M103.944 119.944H120C116.878 117.701 109.296 110.972 103.944 102V119.944Z" fill="url(#paint0_linear_38_9)"/>
<path d="M34.0557 119.944H18.0001C21.122 117.701 28.7038 110.972 34.0557 102V119.944Z" fill="url(#paint1_linear_38_9)"/>
<path fill-rule="evenodd" clip-rule="evenodd" d="M34.3878 102H34.0557V119.944H103.945V102H103.612C95.2968 109.95 82.8765 114.997 69.0001 114.997C55.1237 114.997 42.7034 109.95 34.3878 102Z" fill="url(#paint2_linear_38_9)"/>
<path fill-rule="evenodd" clip-rule="evenodd" d="M69.0001 112.444C95.0802 112.444 116.222 91.3023 116.222 65.2222C116.222 39.1421 95.0802 18 69.0001 18C42.9199 18 21.7778 39.1421 21.7778 65.2222C21.7778 91.3023 42.9199 112.444 69.0001 112.444ZM69.0001 104.889C90.7335 104.889 108.667 86.9557 108.667 65.2222C108.667 43.4888 90.7335 25.5555 69.0001 25.5555C47.2667 25.5555 29.3334 43.4888 29.3334 65.2222C29.3334 86.9557 47.2666 104.889 69.0001 104.889Z" fill="url(#paint3_linear_38_9)"/>
<path fill-rule="evenodd" clip-rule="evenodd" d="M91.6274 73.8902V55.3843C95.5616 56.6199 98.4153 60.2953 98.4153 64.6372C98.4153 68.9792 95.5616 72.6546 91.6274 73.8902Z" fill="url(#paint4_linear_38_9)"/>
<path fill-rule="evenodd" clip-rule="evenodd" d="M42.9294 54.8924C61.1297 53.4167 71.4595 50.4653 90.1517 39.6435V90.8009C77.8542 79.4873 63.6875 75.0602 50.3079 73.0926L42.9294 54.8924ZM50.7998 62.2708V65.7141C62.1135 66.6979 75.3947 71.125 82.7732 76.044V52.4329C76.3785 56.3681 59.1621 61.287 50.7998 62.2708Z" fill="url(#paint5_linear_38_9)"/>
<path d="M50.3079 73.0926L42.9294 54.8924V90.7222C44.4445 93.0833 47.2778 95.4444 50.3079 96.8611V73.0926Z" fill="url(#paint6_linear_38_9)"/>
</g>
<defs>
<filter id="filter0_d_38_9" x="0.299999" y="0.299999" width="137.4" height="137.344" filterUnits="userSpaceOnUse" color-interpolation-filters="sRGB">
<feFlood flood-opacity="0" result="BackgroundImageFix"/>
<feColorMatrix in="SourceAlpha" type="matrix" values="0 0 0 0 0 0 0 0 0 0 0 0 0 0 0 0 0 0 127 0" result="hardAlpha"/>
<feOffset/>
<feGaussianBlur stdDeviation="8.85"/>
<feComposite in2="hardAlpha" operator="out"/>
<feColorMatrix type="matrix" values="0 0 0 0 1 0 0 0 0 1 0 0 0 0 1 0 0 0 0.3 0"/>
<feBlend mode="normal" in2="BackgroundImageFix" result="effect1_dropShadow_38_9"/>
<feBlend mode="normal" in="SourceGraphic" in2="effect1_dropShadow_38_9" result="shape"/>
</filter>
<linearGradient id="paint0_linear_38_9" x1="111.972" y1="102" x2="111.972" y2="119.944" gradientUnits="userSpaceOnUse">
<stop stop-color="#F2D2FB"/>
<stop offset="0.802885" stop-color="#F98293"/>
</linearGradient>
<linearGradient id="paint1_linear_38_9" x1="26.0279" y1="102" x2="26.0279" y2="119.944" gradientUnits="userSpaceOnUse">
<stop stop-color="#F2D2FB"/>
<stop offset="0.802885" stop-color="#F98293"/>
</linearGradient>
<linearGradient id="paint2_linear_38_9" x1="69.0001" y1="102" x2="69.0001" y2="119.944" gradientUnits="userSpaceOnUse">
<stop stop-color="#F2D2FB"/>
<stop offset="0.802885" stop-color="#F98293"/>
</linearGradient>
<linearGradient id="paint3_linear_38_9" x1="69.0001" y1="18" x2="69.0001" y2="112.444" gradientUnits="userSpaceOnUse">
<stop stop-color="#F2D2FB"/>
<stop offset="1" stop-color="#FF8A8B"/>
</linearGradient>
<linearGradient id="paint4_linear_38_9" x1="95.0214" y1="55.3843" x2="95.0214" y2="73.8902" gradientUnits="userSpaceOnUse">
<stop stop-color="#F7B4CC"/>
<stop offset="1" stop-color="#FE9293"/>
</linearGradient>
<linearGradient id="paint5_linear_38_9" x1="66.5406" y1="39.6435" x2="66.5406" y2="97.6875" gradientUnits="userSpaceOnUse">
<stop stop-color="#F3CAF1"/>
<stop offset="1" stop-color="#FF9293"/>
</linearGradient>
<linearGradient id="paint6_linear_38_9" x1="66.5406" y1="39.6435" x2="66.5406" y2="97.6875" gradientUnits="userSpaceOnUse">
<stop stop-color="#F3CAF1"/>
<stop offset="1" stop-color="#FF9293"/>
</linearGradient>
</defs>
</svg>
